# xmcd
#
# Track frame offsets: 
#        150
#        17828
#        29640
#        43298
#        61403
#        78953
#        94693
#        114205
#        127527
#        139288
#        151043
#        165538
#        180458
#        198383
#        219128
#        237955
#        256813
#        274063
#        291975
#        313480
#
# Disc length: 4426 seconds
#
# Revision: 0
# Processed by: cddbd v1.5.2PL0 Copyright (c) Steve Scherf et al.
# Submitted via: ExactAudioCopy v1.0b1
#
DISCID=12114814
DTITLE=伊東ゆかり - プラチナ・ベスト -60カラットの愛の歌
DYEAR=2007
DGENRE=Country
TTITLE0=1001曲のlove Song
TTITLE1=歌をおしえて
TTITLE2=おしゃべりな真珠
TTITLE3=小指の想い出
TTITLE4=あの人の足音
TTITLE5=恋のしずく
TTITLE6=青空のゆくえ
TTITLE7=裸足の恋
TTITLE8=誰も知らない
TTITLE9=陽はまた昇る
TTITLE10=夢でいいから
TTITLE11=あなたの隣に
TTITLE12=もう一度
TTITLE13=1990年
TTITLE14=明日めぐり逢い
TTITLE15=Hanagumori
TTITLE16=あなたのもの
TTITLE17=夏にさようなら
TTITLE18=忘れないで
TTITLE19=ごめんね…
EXTD=
EXTT0=
EXTT1=
EXTT2=
EXTT3=
EXTT4=
EXTT5=
EXTT6=
EXTT7=
EXTT8=
EXTT9=
EXTT10=
EXTT11=
EXTT12=
EXTT13=
EXTT14=
EXTT15=
EXTT16=
EXTT17=
EXTT18=
EXTT19=
PLAYORDER=
